<svg id="visual" viewBox="0 0 960 300" width="960" height="300" xmlns="http://www.w3.org/2000/svg" xmlns:xlink="http://www.w3.org/1999/xlink" version="1.1"><path d="M0 191L26.7 202.5C53.3 214 106.7 237 160 239.7C213.3 242.3 266.7 224.7 320 217.7C373.3 210.7 426.7 214.3 480 220C533.3 225.7 586.7 233.3 640 228.7C693.3 224 746.7 207 800 209.3C853.3 211.7 906.7 233.3 933.3 244.2L960 255L960 301L933.3 301C906.7 301 853.3 301 800 301C746.7 301 693.3 301 640 301C586.7 301 533.3 301 480 301C426.7 301 373.3 301 320 301C266.7 301 213.3 301 160 301C106.7 301 53.3 301 26.7 301L0 301Z" fill="#27AE60" stroke-linecap="round" stroke-linejoin="miter"></path></svg>